<svg id="Layer_1" xmlns="http://www.w3.org/2000/svg" width="186.5" height="176.7" viewBox="0 0 186.5 176.7"><style>.st0{fill:#0292CA;} .st1{fill:none;} .st2{fill:#DADAE5;} .st3{font-family:&apos;Avenir-Light&apos;;} .st4{font-size:14px;} .st5{font-size:12px;} .st6{font-family:&apos;Helvetica&apos;;} .st7{fill:#75C4E4;} .st8{font-family:&apos;Helvetica-Bold&apos;;} .st9{fill:#BEA082;} .st10{fill:none;stroke:#BEA082;stroke-width:0.5;stroke-miterlimit:10;} .st11{fill:#154475;} .st12{fill:#603913;} .st13{fill:none;stroke:#000000;stroke-width:2;stroke-miterlimit:10;} .st14{fill:#AEACB8;} .st15{fill:none;stroke:#AEACB8;stroke-width:0.5;stroke-miterlimit:10;} .st16{fill:none;stroke:#000000;stroke-width:0.5;stroke-miterlimit:10;}</style><path class="st0" d="M0 15.5h186.5v161.2H0z"/><path class="st1" d="M6.2 83h174v120.4H6.2z"/><text transform="translate(18.902 93.548)"><tspan x="0" y="0" class="st2 st3 st4">Jennifer Sharpe</tspan><tspan x="97.1" y="0" class="st2 st3 st5"> </tspan><tspan x="100.2" y="0" class="st2 st6 st5">holds the </tspan><tspan x="-1" y="12" class="st2 st6 st5">record for most cookies ever </tspan><tspan x="-11" y="24" class="st2 st6 st5">sold, with 17,328 boxes in 2008. </tspan><tspan x="-8.6" y="36" class="st2 st6 st5">Of the $21,000 her troop raised </tspan><tspan x="9.3" y="48" class="st2 st6 st5">to go on a 10-day tour of </tspan><tspan x="6.3" y="60" class="st2 st6 st5">Europe, $14,000 was due </tspan><tspan x="48.4" y="72" class="st2 st6 st5">to Sharpe</tspan></text><path class="st1" d="M56.4 24.8h130.9v75.9H56.4z"/><text transform="translate(56.36 33.378)"><tspan x="0" y="0" class="st7 st8 st5">Name: </tspan><tspan x="39.9" y="0" class="st2 st6 st5">Jennifer Sharpe</tspan><tspan x="0" y="12" class="st7 st8 st5">Age: </tspan><tspan x="29.9" y="12" class="st2 st6 st5">15 (in 2008)</tspan><tspan x="0" y="24" class="st7 st8 st5">City: </tspan><tspan x="29.9" y="24" class="st2 st6 st5">Dearborn, MI</tspan><tspan x="0" y="36" class="st7 st8 st5">Boxes sold: </tspan><tspan x="71.1" y="36" class="st2 st6 st5">17,238</tspan></text><path class="st9" d="M50.8 31.4c-.2-.1-.4-.1-.7.1-.1-.3-.2-.5-.4-.5s-.4.1-.6.4c-.1-.2-.3-.4-.5-.4-.4 0-.5.5-.6.8-.1.3-.1.7-.1 1 0 .3 0 .7.2.9.2.3.6.4.9.4.5 0 .8-.2 1-.6.2-.4.5-.8.8-1.2.2-.2.4-.6 0-.9z"/><path class="st10" d="M29.2 60.3v18.1M36.3 60.3v18.1"/><ellipse class="st9" cx="27" cy="78.4" rx="2.7" ry="1.3"/><ellipse class="st9" cx="38.7" cy="78.4" rx="2.7" ry="1.3"/><path class="st10" d="M41.7 39.2c-.1 0-.1-.1-.2-.1 2.7.2 5.3-1.6 6.5-3.7.4-.7.6-1.4.7-2.1M24.6 37.7c.1 0 .1.1.2.1-2.6-.2-5.2 1.5-6.4 3.6-.4.6-.6 1.3-.8 2"/><path class="st11" d="M30.1 24.5c-2.4.7-4.6 2.1-5.8 4.7-1.2 2.7-1.1 6-1.3 8.9-.2 3.2 0 6.3-.2 9.5-.2 4.1.5 9.8-1.6 13.5 1.3-.4 2.5-.3 3.8-.4 2.5-.2 5.1-.2 7.6-.4 3-.2 6.1-.1 9.1-.2.9 0 2.4-.4 3.2.2-1.6-1.6-2.3-5.1-2.5-7.4-.6-6.3-.8-12.9-2-19.1-.6-2.9-1.1-6.4-3.3-8.2-1.8-1.7-4.6-1.8-7-1.1z"/><path class="st9" d="M17.1 45.1c.2.1.5-.1.7-.3.2.3.4.5.6.4.2 0 .4-.3.4-.6.2.2.4.3.6.2.4-.1.3-.7.3-1-.1-.4-.1-.7-.3-1.1-.1-.3-.3-.7-.6-.9-.3-.2-.7-.2-1.1-.1-.5.2-.7.5-.8.9-.1.5-.2.9-.3 1.4.1.5.1 1 .5 1.1z"/><path class="st12" d="M19.5 21.6c.1-.1.2-.1.1-.3-1.9.1-2.5 3-2.3 4.4.2 2 1.6 5.2.4 7.1.7-1 1.2-1.9 1.2-3.2.4 1.2.9 2.5.9 3.8 1.1-1.2.6-2.6.3-3.9.3 1.1 1.4 3.1 2.7 3.4-1-2.5-1.4-4.6-1.8-7.2-.2-1.1-.2-4.6-1.5-4.1z"/><path class="st13" d="M26.4 23.4c0-.1.2-.1 0-.2 1.5 3.1 9.4 2.5 10.1-.8"/><path class="st14" d="M31.6 32.9c-2.9 1.9-1.3 5.3-.5 7.9 1.4-2.8 2-5.1.5-7.9z"/><path class="st14" d="M32.7 32.7c-2.5 2.5-.4 5.5.9 7.8.9-2.9 1-5.4-.9-7.8z"/><path class="st14" d="M26 25.2c-1.6 3.7 3.1 6.6 5.5 8.2 2.1 1.3 5.6-4.3 6-6.1.1-.7-.1-1.9-.5-2.4-.5.3-.8.9-1.2 1.4-.6.8-1.1 1.6-1.9 2.3-1.7 1.5-3.6 1.4-5.1-.4-.5-.6-2.2-3.2-3.2-2.8-.4.4-.3 1.4.4-.2z"/><ellipse class="st9" cx="31.8" cy="16.3" rx="12.7" ry="11.8"/><path class="st12" d="M31.8 8c-3 3.9-5.1 8.1-8.7 11.5-.7.6-1.4 1.3-2.4 1.5-3.7 1-3.6-3.2-3.3-5.4.6-4.4 1.9-10.7 7.4-12.1 2.3-.6 4.2.9 6.5 1 1.8 0 3.2-.9 4.9-1.3 4.5-1.1 7.6 2.8 8.9 6.3 1 2.7 2.4 9.3-1.2 10.9-1.2.5-3.1.4-3.9-.7-.8-1-8.8-10.9-8.2-11.7z"/><ellipse cx="27.9" cy="16.6" rx=".7" ry=".7"/><ellipse cx="34.4" cy="16.6" rx=".7" ry=".7"/><path class="st15" d="M16.7 23.9c1.7-.9 3.7-2.9 3-4-.9-1.5-4.3-.2-2.9.8 1 .7 5 .8 6.2-.1.5-.4.3-.9-.7-.9-.8 0-1.8.6-2.2.8-.7.4-.8.6-.6 1 .3.4.8.9 1.4 1.2.7.4 1.8.5 2.5.7"/><path class="st12" d="M43.2 20.7c.1-.1.2-.1.1-.3-1.9.1-2.5 3-2.3 4.4.2 2 1.6 5.2.4 7.1.7-1 1.2-1.9 1.2-3.2.4 1.2.9 2.5.9 3.8 1.1-1.2.6-2.6.3-3.9.3 1.1 1.4 3.1 2.7 3.4-1-2.5-1.4-4.6-1.8-7.2-.2-1-.2-4.6-1.5-4.1z"/><path class="st16" d="M27.3 23c-.2 0-.3 0-.3.2.7 2 4.1 2.6 6 2.3 1.2-.2 3.9-1.6 3.6-2.8"/><path class="st15" d="M40.4 23.1c1.7-.9 3.7-2.9 3-4-.9-1.5-4.3-.2-2.9.8 1 .7 5 .8 6.2-.1.5-.4.3-.9-.7-.9-.8 0-1.8.6-2.2.8-.7.4-.8.6-.6 1 .3.4.8.9 1.4 1.2.7.4 1.8.5 2.5.7"/></svg>
