<?xml version="1.0" encoding="utf-8"?>
<!-- Generator: Adobe Illustrator 19.2.0, SVG Export Plug-In . SVG Version: 6.00 Build 0)  -->
<svg version="1.1" id="Layer_1" xmlns="http://www.w3.org/2000/svg" xmlns:xlink="http://www.w3.org/1999/xlink" x="0px" y="0px"
	 width="216.6px" height="445.1px" viewBox="0 0 216.6 445.1" style="enable-background:new 0 0 216.6 445.1;" xml:space="preserve"
	>
<style type="text/css">
	.st0{fill:#9594A0;}
	.st1{fill:#75C4E4;}
	.st2{fill:#164475;}
	.st3{fill:#DADAE5;}
	.st4{fill:none;}
	.st5{font-family:'Helvetica';}
	.st6{font-size:13.0894px;}
	.st7{font-family:'Helvetica-Bold';}
	.st8{font-family:'Avenir-Roman';}
	.st9{font-size:20px;}
</style>
<rect class="st0" width="216.6" height="445.1"/>
<path class="st1" d="M111.7,105.6H28c-4,0-7.2-3.2-7.2-7.2v-9.6h81c5.5,0,9.9,4.5,9.9,9.9V105.6z"/>
<path class="st2" d="M111.7,105.6H79.3c-4,0-7.2-3.2-7.2-7.2v-9.6h29.7c5.5,0,9.9,4.5,9.9,9.9V105.6z"/>
<path class="st3" d="M111.7,105.6h-10.5c-4,0-7.2-3.2-7.2-7.2v-9.6h7.7c5.5,0,9.9,4.5,9.9,9.9V105.6z"/>
<path class="st1" d="M112.4,156H28.7c-4,0-7.2-3.2-7.2-7.2v-9.6h81c5.5,0,9.9,4.5,9.9,9.9V156z"/>
<path class="st2" d="M112.4,156h-67c-4,0-7.2-3.2-7.2-7.2v-9.6h64.2c5.5,0,9.9,4.5,9.9,9.9V156z"/>
<path class="st3" d="M112.4,156H50.9c-4,0-7.2-3.2-7.2-7.2v-9.6h58.9c5.5,0,9.9,4.5,9.9,9.9V156z"/>
<path class="st1" d="M113.2,203.4H29.5c-4,0-7.2-3.2-7.2-7.2v-9.6h81c5.5,0,9.9,4.5,9.9,9.9V203.4z"/>
<path class="st2" d="M113.2,203.4h-67c-4,0-7.2-3.2-7.2-7.2v-9.6h64.2c5.5,0,9.9,4.5,9.9,9.9V203.4z"/>
<path class="st3" d="M113.2,203.4H51.6c-4,0-7.2-3.2-7.2-7.2v-9.6h58.9c5.5,0,9.9,4.5,9.9,9.9V203.4z"/>
<path class="st1" d="M113.2,252H29.5c-4,0-7.2-3.2-7.2-7.2v-9.6h81c5.5,0,9.9,4.5,9.9,9.9V252z"/>
<path class="st2" d="M113.2,252H51.6c-4,0-7.2-3.2-7.2-7.2v-9.6h58.9c5.5,0,9.9,4.5,9.9,9.9V252z"/>
<path class="st3" d="M113.2,252H62.9c-4,0-7.2-3.2-7.2-7.2v-9.6h47.6c5.5,0,9.9,4.5,9.9,9.9V252z"/>
<path class="st1" d="M115.7,301.3H32c-4,0-7.2-3.2-7.2-7.2v-9.6h81c5.5,0,9.9,4.5,9.9,9.9V301.3z"/>
<path class="st2" d="M115.7,301.3H83.3c-4,0-7.2-3.2-7.2-7.2v-9.6h29.7c5.5,0,9.9,4.5,9.9,9.9V301.3z"/>
<path class="st3" d="M115.7,301.3h-10.5c-4,0-7.2-3.2-7.2-7.2v-9.6h7.7c5.5,0,9.9,4.5,9.9,9.9V301.3z"/>
<path class="st1" d="M117.6,351.2H33.9c-4,0-7.2-3.2-7.2-7.2v-9.6h81c5.5,0,9.9,4.5,9.9,9.9V351.2z"/>
<path class="st2" d="M117.6,351.2h-67c-4,0-7.2-3.2-7.2-7.2v-9.6h64.2c5.5,0,9.9,4.5,9.9,9.9V351.2z"/>
<path class="st3" d="M117.6,351.2H56c-4,0-7.2-3.2-7.2-7.2v-9.6h58.9c5.5,0,9.9,4.5,9.9,9.9V351.2z"/>
<rect x="20" y="60" class="st4" width="141.3" height="28.8"/>
<text transform="matrix(0.9168 0 0 1 20.0461 69.3863)"><tspan x="0" y="0" class="st3 st5 st6">other </tspan><tspan x="0" y="13.1" class="st1 st7 st6">46,322,000,000kcal/year</tspan></text>
<rect x="21.5" y="110.9" class="st4" width="153.3" height="35.8"/>
<text transform="matrix(0.9168 0 0 1 21.5334 120.2696)"><tspan x="0" y="0" class="st3 st5 st6">thin mint </tspan><tspan x="0" y="13.1" class="st1 st7 st6">56,000,000,000kcal/year</tspan></text>
<rect x="21.5" y="160" class="st4" width="161.8" height="35.8"/>
<text transform="matrix(0.9168 0 0 1 21.5334 169.3707)"><tspan x="0" y="0" class="st3 st5 st6">samoas/caramel delites</tspan><tspan x="0" y="13.1" class="st1 st7 st6">39,900,000,000kcal/year</tspan></text>
<rect x="24.8" y="256.6" class="st4" width="191.7" height="35.8"/>
<text transform="matrix(0.9168 0 0 1 24.8268 266.0187)"><tspan x="0" y="0" class="st3 st5 st6">do-si-dos/p.b. sandwiches</tspan><tspan x="0" y="13.1" class="st1 st7 st6">23,210,000,000kcal/year</tspan></text>
<rect x="22.3" y="206.5" class="st4" width="161" height="35.8"/>
<text transform="matrix(0.9168 0 0 1 22.3268 215.879)"><tspan x="0" y="0" class="st3 st5 st6">tangalong/peanut butter patty</tspan><tspan x="0" y="13.1" class="st1 st7 st6">39,900,000,000kcal/year</tspan></text>
<rect x="26.2" y="305.8" class="st4" width="131.1" height="35.8"/>
<text transform="matrix(0.9168 0 0 1 26.1535 315.2374)"><tspan x="0" y="0" class="st3 st5 st6">trefoils/shortbread</tspan><tspan x="0" y="13.1" class="st1 st7 st6">20,160,000,000kcal/yea</tspan><tspan x="0" y="26.2" class="st1 st7 st6">r</tspan></text>
<rect x="26.6" y="361.4" class="st1" width="15.5" height="17.8"/>
<rect x="25.9" y="385.9" class="st2" width="15.5" height="17.8"/>
<rect x="25.6" y="410.6" class="st3" width="15.5" height="17.8"/>
<rect x="44" y="365.2" class="st4" width="65" height="22.4"/>
<text transform="matrix(0.9168 0 0 1 43.9733 374.5865)" class="st3 st5 st6">fat</text>
<rect x="43.8" y="389.7" class="st4" width="65" height="22.4"/>
<text transform="matrix(0.9168 0 0 1 43.8019 399.0802)" class="st3 st5 st6">protein</text>
<rect x="43.6" y="413.1" class="st4" width="65" height="22.4"/>
<text transform="matrix(0.9168 0 0 1 43.5993 422.5548)" class="st3 st5 st6">carbs</text>
<rect x="19" y="7.1" class="st4" width="203.9" height="43"/>
<text transform="matrix(1 0 0 1 19.0009 22.2172)"><tspan x="0" y="0" class="st3 st8 st9">Where do all these </tspan><tspan x="0" y="22" class="st3 st8 st9">calories come from?</tspan></text>
</svg>
