<?xml version="1.0" encoding="utf-8"?>
<!-- Generator: Adobe Illustrator 19.2.0, SVG Export Plug-In . SVG Version: 6.00 Build 0)  -->
<svg version="1.1" id="Layer_1" xmlns="http://www.w3.org/2000/svg" xmlns:xlink="http://www.w3.org/1999/xlink" x="0px" y="0px"
	 width="185px" height="192.2px" viewBox="0 0 185 192.2" enable-background="new 0 0 185 192.2" xml:space="preserve">
<rect x="0.3" fill="#75C4E4" width="184.7" height="192.2"/>
<rect x="7.5" y="7.4" fill="none" width="171.4" height="74"/>
<text transform="matrix(1 0 0 1 7.4943 18.7251)"><tspan x="0" y="0" fill="#FFFFFF" font-family="'Avenir-Light'" font-size="15px">2 bakeries are licensed to </tspan><tspan x="0" y="18" fill="#FFFFFF" font-family="'Avenir-Light'" font-size="15px"> make girl scout cookies</tspan></text>
<rect x="-10" y="45.3" fill="none" width="127.1" height="25.6"/>
<text transform="matrix(1 0 0 1 21.565 69.3866)" fill="#FFFFFF" font-family="'Avenir-Light'" font-size="17.77px">Brownie</text>
<text transform="matrix(1 0 0 1 34.2838 58.1863)" fill="#FFFFFF" font-family="'Avenir-Light'" font-size="9.5685px">Little</text>
<line fill="none" stroke="#FFFFFF" stroke-width="2" stroke-linecap="round" stroke-linejoin="round" stroke-miterlimit="10" x1="58.1" y1="54.9" x2="84.8" y2="54.9"/>
<text transform="matrix(1 0 0 1 54.1519 77.5634)" fill="#FFFFFF" font-family="'Avenir-Light'" font-size="9.5685px">Bakers</text>
<line fill="none" stroke="#FFFFFF" stroke-width="2" stroke-linecap="round" stroke-linejoin="round" stroke-miterlimit="10" x1="24.8" y1="75.6" x2="51.6" y2="75.6"/>
<line fill="none" stroke="#FFFFFF" stroke-width="2" stroke-linecap="round" stroke-linejoin="round" stroke-miterlimit="10" x1="108.4" y1="56.7" x2="162.4" y2="56.7"/>
<rect x="95.6" y="61.7" fill="none" width="79.5" height="8.6"/>
<text transform="matrix(1 0 0 1 109.4244 68.7715)" fill="#FFFFFF" font-family="'Helvetica'" font-size="9.7723px">ABC bakers</text>
<line fill="none" stroke="#FFFFFF" stroke-width="2" stroke-linecap="round" stroke-linejoin="round" stroke-miterlimit="10" x1="108.4" y1="74.4" x2="162.4" y2="74.4"/>
<rect x="15.5" y="89.3" fill="none" width="159.7" height="93.9"/>
<text transform="matrix(1 0 0 1 15.4908 97.9302)"><tspan x="0" y="0" fill="#FFFFFF" font-family="'Helvetica'" font-size="12px">This is why some flavours are </tspan><tspan x="0" y="12" fill="#FFFFFF" font-family="'Helvetica'" font-size="12px">available from some Girl </tspan><tspan x="0" y="24" fill="#FFFFFF" font-family="'Helvetica'" font-size="12px">Scout troops and not others, </tspan><tspan x="0" y="36" fill="#FFFFFF" font-family="'Helvetica'" font-size="12px">why there are two names for </tspan><tspan x="0" y="48" fill="#FFFFFF" font-family="'Helvetica'" font-size="12px">some of the same cookies </tspan><tspan x="0" y="60" fill="#FFFFFF" font-family="'Helvetica'" font-size="12px">and why some boxes of  </tspan><tspan x="0" y="72" fill="#FFFFFF" font-family="'Helvetica'" font-size="12px">Thin mints taste different  </tspan><tspan x="0" y="84" fill="#FFFFFF" font-family="'Helvetica'" font-size="12px">than others</tspan></text>
</svg>
