<svg id="Layer_1" xmlns="http://www.w3.org/2000/svg" width="216.6" height="445.1" viewBox="0 0 216.6 445.1"><style>.st0{fill:#9594A0;} .st1{fill:#75C4E4;} .st2{fill:#164475;} .st3{fill:#DADAE5;} .st4{fill:none;} .st5{font-family:&apos;Helvetica&apos;;} .st6{font-size:13.0894px;} .st7{font-family:&apos;Helvetica-Bold&apos;;} .st8{font-family:&apos;Avenir-Roman&apos;;} .st9{font-size:20px;}</style><path class="st0" d="M0 0h216.6v445.1H0z"/><path class="st1" d="M111.7 105.6H28c-4 0-7.2-3.2-7.2-7.2v-9.6h81c5.5 0 9.9 4.5 9.9 9.9v6.9z"/><path class="st2" d="M111.7 105.6H79.3c-4 0-7.2-3.2-7.2-7.2v-9.6h29.7c5.5 0 9.9 4.5 9.9 9.9v6.9z"/><path class="st3" d="M111.7 105.6h-10.5c-4 0-7.2-3.2-7.2-7.2v-9.6h7.7c5.5 0 9.9 4.5 9.9 9.9v6.9z"/><path class="st1" d="M112.4 156H28.7c-4 0-7.2-3.2-7.2-7.2v-9.6h81c5.5 0 9.9 4.5 9.9 9.9v6.9z"/><path class="st2" d="M112.4 156h-67c-4 0-7.2-3.2-7.2-7.2v-9.6h64.2c5.5 0 9.9 4.5 9.9 9.9v6.9z"/><path class="st3" d="M112.4 156H50.9c-4 0-7.2-3.2-7.2-7.2v-9.6h58.9c5.5 0 9.9 4.5 9.9 9.9v6.9z"/><path class="st1" d="M113.2 203.4H29.5c-4 0-7.2-3.2-7.2-7.2v-9.6h81c5.5 0 9.9 4.5 9.9 9.9v6.9z"/><path class="st2" d="M113.2 203.4h-67c-4 0-7.2-3.2-7.2-7.2v-9.6h64.2c5.5 0 9.9 4.5 9.9 9.9v6.9z"/><path class="st3" d="M113.2 203.4H51.6c-4 0-7.2-3.2-7.2-7.2v-9.6h58.9c5.5 0 9.9 4.5 9.9 9.9v6.9z"/><path class="st1" d="M113.2 252H29.5c-4 0-7.2-3.2-7.2-7.2v-9.6h81c5.5 0 9.9 4.5 9.9 9.9v6.9z"/><path class="st2" d="M113.2 252H51.6c-4 0-7.2-3.2-7.2-7.2v-9.6h58.9c5.5 0 9.9 4.5 9.9 9.9v6.9z"/><path class="st3" d="M113.2 252H62.9c-4 0-7.2-3.2-7.2-7.2v-9.6h47.6c5.5 0 9.9 4.5 9.9 9.9v6.9z"/><path class="st1" d="M115.7 301.3H32c-4 0-7.2-3.2-7.2-7.2v-9.6h81c5.5 0 9.9 4.5 9.9 9.9v6.9z"/><path class="st2" d="M115.7 301.3H83.3c-4 0-7.2-3.2-7.2-7.2v-9.6h29.7c5.5 0 9.9 4.5 9.9 9.9v6.9z"/><path class="st3" d="M115.7 301.3h-10.5c-4 0-7.2-3.2-7.2-7.2v-9.6h7.7c5.5 0 9.9 4.5 9.9 9.9v6.9z"/><path class="st1" d="M117.6 351.2H33.9c-4 0-7.2-3.2-7.2-7.2v-9.6h81c5.5 0 9.9 4.5 9.9 9.9v6.9z"/><path class="st2" d="M117.6 351.2h-67c-4 0-7.2-3.2-7.2-7.2v-9.6h64.2c5.5 0 9.9 4.5 9.9 9.9v6.9z"/><path class="st3" d="M117.6 351.2H56c-4 0-7.2-3.2-7.2-7.2v-9.6h58.9c5.5 0 9.9 4.5 9.9 9.9v6.9z"/><path class="st4" d="M20 60h141.3v28.8H20z"/><text transform="matrix(.9168 0 0 1 20.046 69.386)"><tspan x="0" y="0" class="st3 st5 st6">other </tspan><tspan x="0" y="13.1" class="st1 st7 st6">46,322,000,000kcal/year</tspan></text><path class="st4" d="M21.5 110.9h153.3v35.8H21.5z"/><text transform="matrix(.9168 0 0 1 21.533 120.27)"><tspan x="0" y="0" class="st3 st5 st6">thin mint </tspan><tspan x="0" y="13.1" class="st1 st7 st6">56,000,000,000kcal/year</tspan></text><path class="st4" d="M21.5 160h161.8v35.8H21.5z"/><text transform="matrix(.9168 0 0 1 21.533 169.37)"><tspan x="0" y="0" class="st3 st5 st6">samoas/caramel delites</tspan><tspan x="0" y="13.1" class="st1 st7 st6">39,900,000,000kcal/year</tspan></text><path class="st4" d="M24.8 256.6h191.7v35.8H24.8z"/><text transform="matrix(.9168 0 0 1 24.827 266.02)"><tspan x="0" y="0" class="st3 st5 st6">do-si-dos/p.b. sandwiches</tspan><tspan x="0" y="13.1" class="st1 st7 st6">23,210,000,000kcal/year</tspan></text><path class="st4" d="M22.3 206.5h161v35.8h-161z"/><text transform="matrix(.9168 0 0 1 22.327 215.88)"><tspan x="0" y="0" class="st3 st5 st6">tangalong/peanut butter patty</tspan><tspan x="0" y="13.1" class="st1 st7 st6">39,900,000,000kcal/year</tspan></text><path class="st4" d="M26.2 305.8h131.1v35.8H26.2z"/><text transform="matrix(.9168 0 0 1 26.154 315.237)"><tspan x="0" y="0" class="st3 st5 st6">trefoils/shortbread</tspan><tspan x="0" y="13.1" class="st1 st7 st6">20,160,000,000kcal/yea</tspan><tspan x="0" y="26.2" class="st1 st7 st6">r</tspan></text><path class="st1" d="M26.6 361.4h15.5v17.8H26.6z"/><path class="st2" d="M25.9 385.9h15.5v17.8H25.9z"/><path class="st3" d="M25.6 410.6h15.5v17.8H25.6z"/><path class="st4" d="M44 365.2h65v22.4H44z"/><text transform="matrix(.9168 0 0 1 43.973 374.587)" class="st3 st5 st6">fat</text><path class="st4" d="M43.8 389.7h65v22.4h-65z"/><text transform="matrix(.9168 0 0 1 43.802 399.08)" class="st3 st5 st6">protein</text><path class="st4" d="M43.6 413.1h65v22.4h-65z"/><text transform="matrix(.9168 0 0 1 43.6 422.555)" class="st3 st5 st6">carbs</text><path class="st4" d="M19 7.1h203.9v43H19z"/><text transform="translate(19 22.217)"><tspan x="0" y="0" class="st3 st8 st9">Where do all these </tspan><tspan x="0" y="22" class="st3 st8 st9">calories come from?</tspan></text></svg>