<?xml version="1.0" encoding="utf-8"?>
<!-- Generator: Adobe Illustrator 19.2.0, SVG Export Plug-In . SVG Version: 6.00 Build 0)  -->
<svg version="1.1" id="Layer_1" xmlns="http://www.w3.org/2000/svg" xmlns:xlink="http://www.w3.org/1999/xlink" x="0px" y="0px"
	 width="216.6px" height="445.4px" viewBox="0 0 216.6 445.4" enable-background="new 0 0 216.6 445.4" xml:space="preserve">
<rect y="0.3" fill="#9595A0" width="216.6" height="445.1"/>
<path fill="#75C4E4" d="M111.7,105.9H28c-4,0-7.2-3.2-7.2-7.2v-9.6h81c5.5,0,9.9,4.5,9.9,9.9V105.9z"/>
<path fill="#154475" d="M111.7,105.9H79.3c-4,0-7.2-3.2-7.2-7.2v-9.6h29.7c5.5,0,9.9,4.5,9.9,9.9V105.9z"/>
<path fill="#DADAE5" d="M111.7,105.9h-10.5c-4,0-7.2-3.2-7.2-7.2v-9.6h7.7c5.5,0,9.9,4.5,9.9,9.9V105.9z"/>
<path fill="#75C4E4" d="M112.4,156.3H28.7c-4,0-7.2-3.2-7.2-7.2v-9.6h81c5.5,0,9.9,4.5,9.9,9.9V156.3z"/>
<path fill="#154475" d="M112.4,156.3h-67c-4,0-7.2-3.2-7.2-7.2v-9.6h64.2c5.5,0,9.9,4.5,9.9,9.9V156.3z"/>
<path fill="#DADAE5" d="M112.4,156.3H50.9c-4,0-7.2-3.2-7.2-7.2v-9.6h58.9c5.5,0,9.9,4.5,9.9,9.9V156.3z"/>
<path fill="#75C4E4" d="M113.2,203.7H29.5c-4,0-7.2-3.2-7.2-7.2v-9.6h81c5.5,0,9.9,4.5,9.9,9.9V203.7z"/>
<path fill="#154475" d="M113.2,203.7h-67c-4,0-7.2-3.2-7.2-7.2v-9.6h64.2c5.5,0,9.9,4.5,9.9,9.9V203.7z"/>
<path fill="#DADAE5" d="M113.2,203.7H51.6c-4,0-7.2-3.2-7.2-7.2v-9.6h58.9c5.5,0,9.9,4.5,9.9,9.9V203.7z"/>
<path fill="#75C4E4" d="M113.2,252.3H29.5c-4,0-7.2-3.2-7.2-7.2v-9.6h81c5.5,0,9.9,4.5,9.9,9.9V252.3z"/>
<path fill="#154475" d="M113.2,252.3H51.6c-4,0-7.2-3.2-7.2-7.2v-9.6h58.9c5.5,0,9.9,4.5,9.9,9.9V252.3z"/>
<path fill="#DADAE5" d="M113.2,252.3H62.9c-4,0-7.2-3.2-7.2-7.2v-9.6h47.6c5.5,0,9.9,4.5,9.9,9.9V252.3z"/>
<path fill="#75C4E4" d="M115.7,301.6H32c-4,0-7.2-3.2-7.2-7.2v-9.6h81c5.5,0,9.9,4.5,9.9,9.9V301.6z"/>
<path fill="#154475" d="M115.7,301.6H83.3c-4,0-7.2-3.2-7.2-7.2v-9.6h29.7c5.5,0,9.9,4.5,9.9,9.9V301.6z"/>
<path fill="#DADAE5" d="M115.7,301.6h-10.5c-4,0-7.2-3.2-7.2-7.2v-9.6h7.7c5.5,0,9.9,4.5,9.9,9.9V301.6z"/>
<path fill="#75C4E4" d="M117.6,351.5H33.9c-4,0-7.2-3.2-7.2-7.2v-9.6h81c5.5,0,9.9,4.5,9.9,9.9V351.5z"/>
<path fill="#154475" d="M117.6,351.5h-67c-4,0-7.2-3.2-7.2-7.2v-9.6h64.2c5.5,0,9.9,4.5,9.9,9.9V351.5z"/>
<path fill="#DADAE5" d="M117.6,351.5H56c-4,0-7.2-3.2-7.2-7.2v-9.6h58.9c5.5,0,9.9,4.5,9.9,9.9V351.5z"/>
<rect x="20" y="60.3" fill="none" width="141.3" height="28.8"/>
<text transform="matrix(0.9168 0 0 1 20.0461 69.7061)"><tspan x="0" y="0" fill="#DADAE5" font-family="'Helvetica'" font-size="13.0894px">other </tspan><tspan x="0" y="13.1" fill="#75C4E4" font-family="'Helvetica-Bold'" font-size="13.0894px">46,322,000,000kcal/year</tspan></text>
<rect x="21.5" y="111.2" fill="none" width="153.3" height="35.8"/>
<text transform="matrix(0.9168 0 0 1 21.5334 120.5894)"><tspan x="0" y="0" fill="#DADAE5" font-family="'Helvetica'" font-size="13.0894px">thin mint </tspan><tspan x="0" y="13.1" fill="#75C4E4" font-family="'Helvetica-Bold'" font-size="13.0894px">56,000,000,000kcal/year</tspan></text>
<rect x="21.5" y="160.3" fill="none" width="161.8" height="35.8"/>
<text transform="matrix(0.9168 0 0 1 21.5334 169.6905)"><tspan x="0" y="0" fill="#DADAE5" font-family="'Helvetica'" font-size="13.0894px">samoas/caramel delites</tspan><tspan x="0" y="13.1" fill="#75C4E4" font-family="'Helvetica-Bold'" font-size="13.0894px">39,900,000,000kcal/year</tspan></text>
<rect x="24.8" y="256.9" fill="none" width="191.7" height="35.8"/>
<text transform="matrix(0.9168 0 0 1 24.8268 266.3384)"><tspan x="0" y="0" fill="#DADAE5" font-family="'Helvetica'" font-size="13.0894px">do-si-dos/p.b. sandwiches</tspan><tspan x="0" y="13.1" fill="#75C4E4" font-family="'Helvetica-Bold'" font-size="13.0894px">23,210,000,000kcal/year</tspan></text>
<rect x="22.3" y="206.8" fill="none" width="161" height="35.8"/>
<text transform="matrix(0.9168 0 0 1 22.3268 216.1988)"><tspan x="0" y="0" fill="#DADAE5" font-family="'Helvetica'" font-size="13.0894px">tangalong/peanut butter patty</tspan><tspan x="0" y="13.1" fill="#75C4E4" font-family="'Helvetica-Bold'" font-size="13.0894px">39,900,000,000kcal/year</tspan></text>
<rect x="26.2" y="306.1" fill="none" width="131.1" height="35.8"/>
<text transform="matrix(0.9168 0 0 1 26.1535 315.5572)"><tspan x="0" y="0" fill="#DADAE5" font-family="'Helvetica'" font-size="13.0894px">trefoils/shortbread</tspan><tspan x="0" y="13.1" fill="#75C4E4" font-family="'Helvetica-Bold'" font-size="13.0894px">20,160,000,000kcal/yea</tspan><tspan x="0" y="26.2" fill="#75C4E4" font-family="'Helvetica-Bold'" font-size="13.0894px">r</tspan></text>
<rect x="26.6" y="361.7" fill="#75C4E4" width="15.5" height="17.8"/>
<rect x="25.9" y="386.2" fill="#154475" width="15.5" height="17.8"/>
<rect x="25.6" y="410.9" fill="#DADAE5" width="15.5" height="17.8"/>
<rect x="44" y="365.5" fill="none" width="65" height="22.4"/>
<text transform="matrix(0.9168 0 0 1 43.9733 374.9063)" fill="#DADAE5" font-family="'Helvetica'" font-size="13.0894px">fat</text>
<rect x="43.8" y="390" fill="none" width="65" height="22.4"/>
<text transform="matrix(0.9168 0 0 1 43.8019 399.3999)" fill="#DADAE5" font-family="'Helvetica'" font-size="13.0894px">protein</text>
<rect x="43.6" y="413.5" fill="none" width="65" height="22.4"/>
<text transform="matrix(0.9168 0 0 1 43.5993 422.8745)" fill="#DADAE5" font-family="'Helvetica'" font-size="13.0894px">carbs</text>
<rect x="19" y="7.4" fill="none" width="203.9" height="43"/>
<text transform="matrix(1 0 0 1 19.0009 22.5369)"><tspan x="0" y="0" fill="#DADAE5" font-family="'Avenir-Roman'" font-size="20px">Where do all these </tspan><tspan x="0" y="22" fill="#DADAE5" font-family="'Avenir-Roman'" font-size="20px">calories come from?</tspan></text>
</svg>
