<?xml version="1.0" encoding="utf-8"?>
<!-- Generator: Adobe Illustrator 19.2.0, SVG Export Plug-In . SVG Version: 6.00 Build 0)  -->
<svg version="1.1" id="Layer_1" xmlns="http://www.w3.org/2000/svg" xmlns:xlink="http://www.w3.org/1999/xlink" x="0px" y="0px"
	 width="336px" height="190.1px" viewBox="0 0 336 190.1" enable-background="new 0 0 336 190.1" xml:space="preserve">
<rect fill="#FFFFFF" width="336" height="190.1"/>
<rect fill="#797982" width="179.8" height="190.1"/>
<g>
	<path fill="#BEA082" d="M301.7,73.7c-0.4-0.3-1-0.1-1.6,0.3c-0.2-0.7-0.5-1.2-1-1.3c-0.4-0.1-0.9,0.3-1.3,0.9
		c-0.3-0.6-0.6-0.9-1.1-0.9c-0.9,0-1.2,1.2-1.4,1.8c-0.2,0.8-0.3,1.6-0.3,2.4c0,0.7,0,1.5,0.5,2.1c0.5,0.6,1.3,1,2.1,1
		c1.1,0,1.8-0.5,2.3-1.3c0.5-0.9,1.2-1.7,1.7-2.6C302.1,75.3,302.5,74.3,301.7,73.7z"/>
	<line fill="none" stroke="#BEA082" stroke-width="3" stroke-miterlimit="10" x1="253.2" y1="138.5" x2="253.2" y2="179.4"/>
	<line fill="none" stroke="#BEA082" stroke-width="3" stroke-miterlimit="10" x1="269.1" y1="138.5" x2="269.1" y2="179.4"/>
	<ellipse fill="#BEA082" cx="248.2" cy="179.4" rx="6" ry="2.9"/>
	<ellipse fill="#BEA082" cx="274.4" cy="179.4" rx="6" ry="2.9"/>
	<path fill="none" stroke="#BEA082" stroke-miterlimit="10" d="M281.2,91.1c-0.2-0.1-0.3-0.2-0.5-0.2c6,0.4,11.9-3.5,14.6-8.3
		c0.8-1.5,1.4-3.1,1.6-4.8"/>
	<path fill="none" stroke="#BEA082" stroke-miterlimit="10" d="M242.9,87.7c0.2,0.1,0.3,0.2,0.5,0.2c-5.9-0.4-11.7,3.4-14.5,8.1
		c-0.8,1.4-1.4,3-1.7,4.6"/>
	<path fill="#154475" d="M255.2,58.3c-5.3,1.6-10.4,4.7-13,10.6c-2.6,6-2.4,13.6-2.9,20.1c-0.5,7.1-0.1,14.3-0.5,21.4
		c-0.5,9.2,1.1,22.1-3.6,30.3c2.8-0.9,5.7-0.6,8.6-0.8c5.7-0.3,11.4-0.5,17.1-0.9c6.8-0.4,13.6-0.2,20.5-0.5
		c2.1-0.1,5.4-0.9,7.3,0.5c-3.6-3.6-5.1-11.5-5.6-16.7c-1.4-14.2-1.7-28.9-4.5-43c-1.3-6.4-2.5-14.3-7.3-18.4
		C266.7,56.9,260.6,56.7,255.2,58.3z"/>
	<path fill="#BEA082" d="M226,104.5c0.5,0.1,1-0.2,1.5-0.8c0.4,0.7,1,1.1,1.4,1c0.5-0.1,0.8-0.6,0.9-1.3c0.5,0.5,1,0.7,1.4,0.6
		c0.9-0.3,0.8-1.6,0.7-2.2c-0.1-0.8-0.3-1.6-0.6-2.4c-0.3-0.7-0.6-1.5-1.3-2c-0.7-0.4-1.6-0.5-2.4-0.3c-1.1,0.3-1.6,1.1-1.7,2.1
		c-0.2,1.1-0.5,2.1-0.7,3.1C225,103.1,225,104.2,226,104.5z"/>
	<path fill="#603913" d="M231.3,51.6c0.1-0.3,0.4-0.3,0.2-0.6c-4.2,0.2-5.6,6.7-5.3,9.8c0.5,4.6,3.6,11.7,1,16
		c1.7-2.3,2.7-4.2,2.6-7.1c0.9,2.6,2.1,5.7,2,8.4c2.5-2.7,1.4-5.9,0.7-8.9c0.7,2.4,3,7,6,7.7c-2.3-5.5-3.2-10.4-4.1-16.2
		C234.1,58.5,234.1,50.5,231.3,51.6z"/>
	<path fill="none" stroke="#000000" stroke-width="2" stroke-miterlimit="10" d="M246.7,55.6c0-0.2,0.4-0.3,0-0.4
		c3.4,6.9,21.2,5.6,22.7-1.8"/>
	<path fill="#AEACB8" d="M258.6,77c-6.6,4.3-3,11.8-1.1,17.7C260.6,88.6,261.8,83.3,258.6,77z"/>
	<path fill="#AEACB8" d="M260.9,76.5c-5.7,5.6-0.8,12.3,2.1,17.6C264.9,87.5,265.2,82.1,260.9,76.5z"/>
	<path fill="#AEACB8" d="M246,59.8c-3.7,8.4,7,14.9,12.4,18.4c4.6,3,12.7-9.6,13.5-13.7c0.3-1.6-0.2-4.2-1-5.4
		c-1.1,0.7-1.8,2.1-2.6,3.2c-1.3,1.8-2.6,3.7-4.2,5.1c-3.8,3.4-8.1,3.2-11.4-0.8c-1.2-1.4-4.9-7.3-7.1-6.2
		C244.2,61,244.4,63.4,246,59.8z"/>
	<ellipse fill="#BEA082" cx="259" cy="39.8" rx="28.6" ry="26.5"/>
	<path fill="#603913" d="M259,21c-6.6,8.9-11.4,18.2-19.6,25.9c-1.5,1.5-3.2,2.9-5.3,3.5c-8.3,2.1-8.2-7.1-7.5-12.2
		c1.4-10,4.3-24.1,16.6-27.2c5.2-1.3,9.5,2.1,14.6,2.2c4.1,0.1,7.3-2.1,11-3c10.2-2.4,17.1,6.3,20,14.2c2.2,6,5.3,20.9-2.7,24.4
		c-2.7,1.2-7,0.9-8.9-1.5C275.7,45.1,257.6,22.8,259,21z"/>
	<ellipse cx="250.2" cy="40.3" rx="1.7" ry="1.6"/>
	<ellipse cx="264.9" cy="40.3" rx="1.7" ry="1.6"/>
	<path fill="none" stroke="#AEACB8" stroke-miterlimit="10" d="M225,56.9c3.9-2.1,8.3-6.5,6.7-9c-2.1-3.4-9.7-0.4-6.4,1.9
		c2.3,1.6,11.3,1.7,13.8-0.3c1.1-0.8,0.6-2-1.6-1.9c-1.8,0-4,1.2-5,1.9c-1.5,0.9-1.9,1.3-1.3,2.3c0.6,1,1.7,2,3.1,2.7
		c1.6,0.9,4.1,1.1,5.6,1.6"/>
	<path fill="#603913" d="M284.7,49.7c0.1-0.3,0.4-0.3,0.2-0.6c-4.2,0.2-5.6,6.7-5.3,9.8c0.5,4.6,3.6,11.7,1,16
		c1.7-2.3,2.7-4.2,2.6-7.1c0.9,2.6,2.1,5.7,2,8.4c2.5-2.7,1.4-5.9,0.7-8.9c0.7,2.4,3,7,6,7.7c-2.3-5.5-3.2-10.4-4.1-16.2
		C287.5,56.6,287.5,48.6,284.7,49.7z"/>
	<path fill="none" stroke="#000000" stroke-width="2" stroke-miterlimit="10" d="M248.8,54.9c-0.4-0.1-0.6,0-0.6,0.3
		c1.6,4.4,9.1,5.8,13.4,5.1c2.7-0.4,8.8-3.6,8-6.3"/>
	<path fill="none" stroke="#AEACB8" stroke-miterlimit="10" d="M278.4,54.9c3.9-2.1,8.3-6.5,6.7-9c-2.1-3.4-9.7-0.4-6.4,1.9
		c2.3,1.6,11.3,1.7,13.8-0.3c1.1-0.8,0.6-2-1.6-1.9c-1.8,0-4,1.2-5,1.9c-1.5,0.9-1.9,1.3-1.3,2.3c0.6,1,1.7,2,3.1,2.7
		c1.6,0.9,4.1,1.1,5.6,1.6"/>
</g>
<rect x="29.7" y="107.7" fill="none" width="134" height="68.5"/>
<text transform="matrix(1 0 0 1 29.7388 115.2246)"><tspan x="0" y="0" fill="#FFFFFF" font-family="'Avenir-Light'" font-size="10px">As of 2005, 71% of women in  </tspan><tspan x="0" y="12" fill="#FFFFFF" font-family="'Avenir-Light'" font-size="10px">the U.S Senate and 67,1% of </tspan><tspan x="0" y="24" fill="#FFFFFF" font-family="'Avenir-Light'" font-size="10px">the women in the house of </tspan><tspan x="0" y="36" fill="#FFFFFF" font-family="'Avenir-Light'" font-size="10px">representatives are girl scout </tspan><tspan x="0" y="48" fill="#FFFFFF" font-family="'Avenir-Light'" font-size="10px">alumnae</tspan></text>
<circle fill="#75C4E4" cx="51.9" cy="51.7" r="29.4"/>
<polygon fill="#797982" points="51.9,54.2 31.2,45.6 10.5,37 28.3,23.4 46.1,9.7 49,32 "/>
<circle fill="#75C4E4" cx="128.4" cy="51.7" r="29.4"/>
<circle fill="none" stroke="#FFFFFF" stroke-miterlimit="10" cx="51.9" cy="51.7" r="29.4"/>
<polygon fill="#797982" points="129.5,55.1 107,51.5 84.5,47.9 96.6,28.9 108.8,9.9 119.2,32.5 "/>
<path fill="#797982" d="M122.6,8.9c0,0-54.8,8.2-35.6,49.2"/>
<polygon fill="#797982" points="129.5,55.1 128.4,9.7 107,17.4 "/>
<circle fill="none" stroke="#FFFFFF" stroke-miterlimit="10" cx="128.4" cy="51.7" r="29.4"/>
<text transform="matrix(1 0 0 1 40.0704 71.219)" fill="#FFFFFF" font-family="'Avenir-Light'" font-size="14px">71%</text>
<text transform="matrix(1 0 0 1 112.578 71.219)"><tspan x="0" y="0" fill="#FFFFFF" font-family="'Avenir-Light'" font-size="14px">67,1</tspan><tspan x="25.4" y="0" fill="#FFFFFF" font-family="'MyriadPro-Regular'" font-size="14px">%</tspan></text>
</svg>
